<?xml version="1.0" encoding="UTF-8"?>
<!DOCTYPE svg PUBLIC "-//W3C//DTD SVG 1.1//EN" "http://www.w3.org/Graphics/SVG/1.1/DTD/svg11.dtd">
<svg xmlns="http://www.w3.org/2000/svg" version="1.1" width="462px" height="79px" style="shape-rendering:geometricPrecision; text-rendering:geometricPrecision; image-rendering:optimizeQuality; fill-rule:evenodd; clip-rule:evenodd" xmlns:xlink="http://www.w3.org/1999/xlink">
<g><path style="opacity:1" fill="#fdfefd" d="M -0.5,-0.5 C 153.5,-0.5 307.5,-0.5 461.5,-0.5C 461.5,25.8333 461.5,52.1667 461.5,78.5C 307.5,78.5 153.5,78.5 -0.5,78.5C -0.5,52.1667 -0.5,25.8333 -0.5,-0.5 Z"/></g>
<g><path style="opacity:1" fill="#77b150" d="M 25.5,3.5 C 29.5138,3.33449 33.5138,3.50115 37.5,4C 41.5175,5.17034 45.5175,6.337 49.5,7.5C 51.5925,7.51425 53.4259,6.84758 55,5.5C 52.9623,11.5929 50.2956,17.5929 47,23.5C 44.7985,10.928 37.6318,6.09472 25.5,9C 20.831,12.3346 17.9977,16.8346 17,22.5C 16.1473,31.886 16.4806,41.2193 18,50.5C 21.6032,63.8844 29.7698,68.0511 42.5,63C 47.2892,58.5852 49.7892,53.0852 50,46.5C 51,45.1667 52,45.1667 53,46.5C 54.2432,57.5224 49.7432,65.0224 39.5,69C 20.2683,71.7733 8.76832,63.6066 5,44.5C 1.89168,25.5621 8.72501,11.8954 25.5,3.5 Z"/></g>
<g><path style="opacity:1" fill="#74af4d" d="M 442.5,34.5 C 442.5,34.8333 442.5,35.1667 442.5,35.5C 444.136,37.8064 446.469,40.1397 449.5,42.5C 453.774,52.7708 451.107,60.6042 441.5,66C 426.902,67.6162 412.235,67.9495 397.5,67C 399.333,65.1667 401.167,63.3333 403,61.5C 403.5,54.5079 403.666,47.5079 403.5,40.5C 401.143,40.6633 398.81,40.4966 396.5,40C 399.361,40.0302 401.695,39.1969 403.5,37.5C 401.167,36.8333 398.833,36.1667 396.5,35.5C 396.414,34.5041 396.748,33.6708 397.5,33C 399.473,32.5045 401.473,32.3379 403.5,32.5C 403.666,26.4908 403.499,20.4908 403,14.5C 401.229,13.6959 399.729,12.5292 398.5,11C 409.901,3.52898 422.234,1.52898 435.5,5C 447.881,10.0222 450.881,18.3555 444.5,30C 442.33,31.5862 439.996,32.9196 437.5,34C 439.134,34.4935 440.801,34.6602 442.5,34.5 Z"/></g>
<g><path style="opacity:1" fill="#74af4c" d="M 113.5,63.5 C 114.5,64.8333 115.5,66.1667 116.5,67.5C 109.492,67.6663 102.492,67.4996 95.5,67C 97.0175,65.3149 98.6841,63.8149 100.5,62.5C 101.833,55.5 101.833,48.5 100.5,41.5C 96.2351,42.4386 91.9017,42.7719 87.5,42.5C 88.209,41.596 89.209,41.2627 90.5,41.5C 94.4069,41.4867 98.0736,40.6534 101.5,39C 94.5079,38.5004 87.5079,38.3337 80.5,38.5C 80.3336,46.5069 80.5003,54.5069 81,62.5C 81.3826,63.056 81.8826,63.3893 82.5,63.5C 83.1667,63.5 83.8333,63.5 84.5,63.5C 87.3338,65.5015 89.6671,68.0015 91.5,71C 82.8333,71.6667 74.1667,71.6667 65.5,71C 73.1667,70.6667 80.8333,70.3333 88.5,70C 87.8333,69.3333 87.1667,68.6667 86.5,68C 79.1667,67.6667 71.8333,67.3333 64.5,67C 66.0175,65.3149 67.6841,63.8149 69.5,62.5C 70.4973,55.1968 70.8306,47.8635 70.5,40.5C 67.6249,41.1286 64.9583,41.9619 62.5,43C 64.7181,40.7237 67.3848,39.2237 70.5,38.5C 69.8333,38.1667 69.1667,37.8333 68.5,37.5C 65.6286,38.6261 62.9619,39.7928 60.5,41C 62.3635,36.97 65.3635,34.1367 69.5,32.5C 70.6646,25.1893 70.8313,17.856 70,10.5C 68.1667,8.66667 66.3333,6.83333 64.5,5C 71.8333,4.33333 79.1667,4.33333 86.5,5C 84.6667,6.83333 82.8333,8.66667 81,10.5C 81.0007,39.8333 81.6674,39.8333 83,10.5C 84.1667,9.33333 85.3333,8.16667 86.5,7C 87.3317,6.31232 87.9984,6.47899 88.5,7.5C 87.5197,8.98138 86.353,10.3147 85,11.5C 84.5004,18.4921 84.3337,25.4921 84.5,32.5C 90.1667,32.5 95.8333,32.5 101.5,32.5C 101.666,24.8261 101.5,17.1594 101,9.5C 99.0748,8.11959 97.2415,6.61959 95.5,5C 102.833,4.33333 110.167,4.33333 117.5,5C 115.667,6.83333 113.833,8.66667 112,10.5C 111.333,27.8333 111.333,45.1667 112,62.5C 112.383,63.056 112.883,63.3893 113.5,63.5 Z"/></g>
<g><path style="opacity:1" fill="#75b04e" d="M 174.5,31.5 C 175.167,30.8333 175.833,30.1667 176.5,29.5C 177.601,28.2003 178.934,27.7003 180.5,28C 181.833,30.6667 183.167,33.3333 184.5,36C 182.167,36.3333 179.833,36.6667 177.5,37C 176.978,37.5613 176.645,38.228 176.5,39C 179.009,47.4133 182.342,55.2467 186.5,62.5C 187.75,64.1541 189.084,65.8207 190.5,67.5C 182.826,67.6664 175.159,67.4997 167.5,67C 169.993,65.4345 171.993,63.4345 173.5,61C 172.062,56.6268 170.228,52.4601 168,48.5C 165.023,51.1306 162.523,54.1306 160.5,57.5C 161.274,53.6994 163.441,50.3661 167,47.5C 167.667,46.5 167.667,45.5 167,44.5C 163.623,47.7084 160.456,51.0418 157.5,54.5C 154.768,51.3839 152.268,48.0506 150,44.5C 149.487,45.5266 148.987,46.5266 148.5,47.5C 147.833,47.5 147.5,47.1667 147.5,46.5C 148.795,44.6283 148.628,42.9617 147,41.5C 143.45,47.7032 142.117,54.3699 143,61.5C 143.377,62.9423 144.21,63.9423 145.5,64.5C 145.557,65.609 145.89,66.609 146.5,67.5C 138.826,67.6664 131.159,67.4997 123.5,67C 127.579,64.9249 131.079,62.0916 134,58.5C 137.86,51.7379 140.36,44.7379 141.5,37.5C 139.591,36.6518 137.591,36.3184 135.5,36.5C 136.436,33.3699 137.77,30.3699 139.5,27.5C 140.981,28.4803 142.315,29.647 143.5,31C 144.332,31.6877 144.998,31.521 145.5,30.5C 144.027,28.6053 142.36,26.9387 140.5,25.5C 140.833,25.1667 141.167,24.8333 141.5,24.5C 142.833,25.5 144.167,26.5 145.5,27.5C 148.468,22.3831 150.801,16.8831 152.5,11C 151.421,8.84477 150.087,6.84477 148.5,5C 155.833,4.33333 163.167,4.33333 170.5,5C 168.649,6.68375 166.982,8.51708 165.5,10.5C 167.949,17.8814 170.949,24.8814 174.5,31.5 Z"/></g>
<g><path style="opacity:1" fill="#75af4d" d="M 241.5,46.5 C 242.828,41.8806 243.494,36.8806 243.5,31.5C 243.499,26.3218 243.166,21.3218 242.5,16.5C 242.842,11.0216 240.509,7.18825 235.5,5C 242.5,4.33333 249.5,4.33333 256.5,5C 251.864,6.63153 249.031,9.7982 248,14.5C 247.5,32.1635 247.333,49.8302 247.5,67.5C 244.223,67.7839 241.057,67.4505 238,66.5C 231.14,52.7802 224.307,39.1136 217.5,25.5C 217.217,24.7109 216.717,24.0442 216,23.5C 215.83,34.3412 215.33,45.0079 214.5,55.5C 214.813,43.0867 214.479,30.7533 213.5,18.5C 213.013,17.5266 212.513,16.5266 212,15.5C 211.173,29.0064 211.34,42.3397 212.5,55.5C 212.655,58.8683 213.988,61.535 216.5,63.5C 217.262,65.2624 218.596,66.2624 220.5,66.5C 221.167,66.5 221.5,66.8333 221.5,67.5C 213.826,67.6664 206.159,67.4997 198.5,67C 202.667,65.5 205.5,62.6667 207,58.5C 207.667,42.1667 207.667,25.8333 207,9.5C 205.442,7.64115 203.609,6.14115 201.5,5C 209.5,4.33333 217.5,4.33333 225.5,5C 223.359,6.30764 221.359,7.80764 219.5,9.5C 226.745,24.3229 234.245,38.9896 242,53.5C 242.556,51.1152 242.39,48.7819 241.5,46.5 Z"/></g>
<g><path style="opacity:1" fill="#75af4d" d="M 301.5,46.5 C 302.828,41.8806 303.494,36.8806 303.5,31.5C 303.499,26.3218 303.166,21.3218 302.5,16.5C 302.842,11.0216 300.509,7.18825 295.5,5C 302.5,4.33333 309.5,4.33333 316.5,5C 311.864,6.63153 309.031,9.7982 308,14.5C 307.5,32.1635 307.333,49.8302 307.5,67.5C 304.223,67.7839 301.057,67.4505 298,66.5C 291.14,52.7802 284.307,39.1136 277.5,25.5C 277.217,24.7109 276.717,24.0442 276,23.5C 275.83,34.3412 275.33,45.0079 274.5,55.5C 274.813,43.0867 274.479,30.7533 273.5,18.5C 273.013,17.5266 272.513,16.5266 272,15.5C 271.173,29.0064 271.34,42.3397 272.5,55.5C 272.655,58.8683 273.988,61.535 276.5,63.5C 277.262,65.2624 278.596,66.2624 280.5,66.5C 281.167,66.5 281.5,66.8333 281.5,67.5C 273.826,67.6664 266.159,67.4997 258.5,67C 262.667,65.5 265.5,62.6667 267,58.5C 267.667,42.1667 267.667,25.8333 267,9.5C 265.442,7.64115 263.609,6.14115 261.5,5C 269.5,4.33333 277.5,4.33333 285.5,5C 283.359,6.30764 281.359,7.80764 279.5,9.5C 286.745,24.3229 294.245,38.9896 302,53.5C 302.556,51.1152 302.39,48.7819 301.5,46.5 Z"/></g>
<g><path style="opacity:1" fill="#76b04f" d="M 370.5,31.5 C 371.5,31.1667 372.167,30.5 372.5,29.5C 373.794,28.7101 374.961,27.7101 376,26.5C 377.125,29.8024 378.625,32.9691 380.5,36C 377.471,36.539 374.471,37.2057 371.5,38C 374.525,45.4055 377.358,52.9055 380,60.5C 380.748,62.751 382.248,64.0844 384.5,64.5C 385.167,65.5 385.833,66.5 386.5,67.5C 378.826,67.6664 371.159,67.4997 363.5,67C 365.376,64.954 367.376,63.1207 369.5,61.5C 368.116,56.9511 366.283,52.6178 364,48.5C 360.962,51.2026 358.295,54.2026 356,57.5C 356.994,53.4616 359.327,50.1282 363,47.5C 363.667,46.5 363.667,45.5 363,44.5C 359.297,47.8675 355.964,51.5342 353,55.5C 351.004,52.0142 348.837,48.6809 346.5,45.5C 345.5,44.5 344.5,43.5 343.5,42.5C 342.528,41.2486 341.861,41.582 341.5,43.5C 340.058,47.9914 338.724,52.4914 337.5,57C 337.413,60.329 338.746,62.829 341.5,64.5C 341.557,65.609 341.89,66.609 342.5,67.5C 334.826,67.6664 327.159,67.4997 319.5,67C 330.502,60.1531 336.169,50.3198 336.5,37.5C 334.929,36.6906 333.262,36.3573 331.5,36.5C 332.008,33.1485 333.342,30.1485 335.5,27.5C 336.981,28.4803 338.315,29.647 339.5,31C 340.332,31.6877 340.998,31.521 341.5,30.5C 339.64,29.0613 337.973,27.3947 336.5,25.5C 337.002,24.479 337.668,24.3123 338.5,25C 339.667,26.1667 340.833,27.3333 342,28.5C 344.265,22.5381 346.432,16.5381 348.5,10.5C 347.018,8.51708 345.351,6.68375 343.5,5C 350.856,4.16872 358.189,4.33539 365.5,5.5C 364.167,7.16667 362.833,8.83333 361.5,10.5C 363.735,17.0381 366.068,23.5381 368.5,30C 368.836,31.0299 369.503,31.5299 370.5,31.5 Z"/></g>
<g><path style="opacity:1" fill="#fcfdfc" d="M 417.5,32.5 C 417.189,25.9102 417.522,19.4102 418.5,13C 420.695,11.627 423.029,11.2937 425.5,12C 429.598,12.7141 432.931,14.3807 435.5,17C 433.225,12.1116 429.391,9.94494 424,10.5C 421.083,10.3349 418.417,11.0015 416,12.5C 415.5,19.1583 415.334,25.825 415.5,32.5C 414.178,29.2319 413.511,25.5652 413.5,21.5C 413.667,17.8333 413.833,14.1667 414,10.5C 422.155,5.74888 429.488,6.74888 436,13.5C 438.953,21.3143 436.786,27.1477 429.5,31C 425.509,31.6417 421.509,32.1417 417.5,32.5 Z"/></g>
<g><path style="opacity:1" fill="#90bf70" d="M 116.5,67.5 C 115.5,66.1667 114.5,64.8333 113.5,63.5C 113.333,46.1635 113.5,28.8301 114,11.5C 115.74,9.04649 117.907,7.54649 120.5,7C 119,8.5 117.5,10 116,11.5C 115.333,28.8333 115.333,46.1667 116,63.5C 118.5,66 121,68.5 123.5,71C 114.833,71.6667 106.167,71.6667 97.5,71C 104.833,70.6667 112.167,70.3333 119.5,70C 118.922,68.583 117.922,67.7496 116.5,67.5 Z"/></g>
<g><path style="opacity:1" fill="#92c073" d="M 417.5,32.5 C 416.833,32.5 416.167,32.5 415.5,32.5C 415.334,25.825 415.5,19.1583 416,12.5C 418.417,11.0015 421.083,10.3349 424,10.5C 429.391,9.94494 433.225,12.1116 435.5,17C 432.931,14.3807 429.598,12.7141 425.5,12C 423.029,11.2937 420.695,11.627 418.5,13C 417.522,19.4102 417.189,25.9102 417.5,32.5 Z"/></g>
<g><path style="opacity:1" fill="#f2f7ee" d="M 157.5,19.5 C 155.134,24.2464 153.134,29.2464 151.5,34.5C 154.245,37.9102 156.578,41.5769 158.5,45.5C 154.558,42.5502 151.225,38.8835 148.5,34.5C 151,28.1667 153.5,21.8333 156,15.5C 157.188,16.5634 157.688,17.8967 157.5,19.5 Z"/></g>
<g><path style="opacity:1" fill="#c0dbae" d="M 213.5,18.5 C 212.505,30.6554 212.171,42.9887 212.5,55.5C 211.34,42.3397 211.173,29.0064 212,15.5C 212.513,16.5266 213.013,17.5266 213.5,18.5 Z"/></g>
<g><path style="opacity:1" fill="#c0dbae" d="M 273.5,18.5 C 272.505,30.6554 272.171,42.9887 272.5,55.5C 271.34,42.3397 271.173,29.0064 272,15.5C 272.513,16.5266 273.013,17.5266 273.5,18.5 Z"/></g>
<g><path style="opacity:1" fill="#f1f7ee" d="M 351.5,15.5 C 352.391,16.2613 353.058,17.2613 353.5,18.5C 351.006,23.4838 349.006,28.6505 347.5,34C 349.219,37.401 351.386,40.5676 354,43.5C 354.688,44.3317 354.521,44.9984 353.5,45.5C 350.152,42.1486 347.152,38.4819 344.5,34.5C 347.125,28.2544 349.458,21.9211 351.5,15.5 Z"/></g>
<g><path style="opacity:1" fill="#8bbc6a" d="M 57.5,8.5 C 58.2389,8.36899 58.9056,8.53566 59.5,9C 56.4604,14.9132 53.2938,20.7466 50,26.5C 49.6753,24.4473 50.0087,22.4473 51,20.5C 53.4333,16.6326 55.6,12.6326 57.5,8.5 Z"/></g>
<g><path style="opacity:1" fill="#8bbc69" d="M 257.5,7.5 C 258.525,7.89657 258.692,8.56323 258,9.5C 255.097,10.0686 253.097,11.7352 252,14.5C 251.5,33.4971 251.333,52.4971 251.5,71.5C 247.818,71.6653 244.152,71.4986 240.5,71C 243.482,70.502 246.482,70.3354 249.5,70.5C 249.333,51.8304 249.5,33.1637 250,14.5C 251.767,11.228 254.267,8.89471 257.5,7.5 Z"/></g>
<g><path style="opacity:1" fill="#8bbc69" d="M 317.5,7.5 C 318.525,7.89657 318.692,8.56323 318,9.5C 315.097,10.0686 313.097,11.7352 312,14.5C 311.5,33.4971 311.333,52.4971 311.5,71.5C 307.818,71.6653 304.152,71.4986 300.5,71C 303.482,70.502 306.482,70.3354 309.5,70.5C 309.333,51.8304 309.5,33.1637 310,14.5C 311.767,11.228 314.267,8.89471 317.5,7.5 Z"/></g>
<g><path style="opacity:1" fill="#8ebe6d" d="M 176.5,29.5 C 175.833,30.1667 175.167,30.8333 174.5,31.5C 172.812,24.9338 170.812,18.4338 168.5,12C 169.306,8.52545 171.306,6.52545 174.5,6C 172.775,7.95409 171.442,10.1208 170.5,12.5C 172.235,18.294 174.235,23.9606 176.5,29.5 Z"/></g>
<g><path style="opacity:1" fill="#fdfdfc" d="M 213.5,18.5 C 214.479,30.7533 214.813,43.0867 214.5,55.5C 214.963,58.221 215.629,60.8877 216.5,63.5C 213.988,61.535 212.655,58.8683 212.5,55.5C 212.171,42.9887 212.505,30.6554 213.5,18.5 Z"/></g>
<g><path style="opacity:1" fill="#fdfdfc" d="M 273.5,18.5 C 274.479,30.7533 274.813,43.0867 274.5,55.5C 274.963,58.221 275.629,60.8877 276.5,63.5C 273.988,61.535 272.655,58.8683 272.5,55.5C 272.171,42.9887 272.505,30.6554 273.5,18.5 Z"/></g>
<g><path style="opacity:1" fill="#89bb68" d="M 242.5,16.5 C 243.166,21.3218 243.499,26.3218 243.5,31.5C 243.494,36.8806 242.828,41.8806 241.5,46.5C 235.196,34.5615 228.862,22.5615 222.5,10.5C 224.621,7.84674 227.288,6.34674 230.5,6C 228.5,7.66667 226.5,9.33333 224.5,11C 230.461,22.4221 236.294,33.9221 242,45.5C 242.5,35.8391 242.666,26.1724 242.5,16.5 Z"/></g>
<g><path style="opacity:1" fill="#89bb68" d="M 302.5,16.5 C 303.166,21.3218 303.499,26.3218 303.5,31.5C 303.494,36.8806 302.828,41.8806 301.5,46.5C 295.196,34.5615 288.862,22.5615 282.5,10.5C 284.621,7.84674 287.288,6.34674 290.5,6C 288.5,7.66667 286.5,9.33333 284.5,11C 290.461,22.4221 296.294,33.9221 302,45.5C 302.5,35.8391 302.666,26.1724 302.5,16.5 Z"/></g>
<g><path style="opacity:1" fill="#fafcf9" d="M 159.5,22.5 C 160.87,27.5785 162.536,32.5785 164.5,37.5C 163.566,40.1018 161.899,42.1018 159.5,43.5C 158.13,39.9579 156.13,36.7912 153.5,34C 154.932,30.539 156.265,27.039 157.5,23.5C 157.957,22.7025 158.624,22.3691 159.5,22.5 Z"/></g>
<g><path style="opacity:1" fill="#f9fbf7" d="M 353.5,21.5 C 356.284,26.6494 358.618,32.1494 360.5,38C 359.118,39.9329 357.618,41.7663 356,43.5C 353.428,40.5972 351.261,37.4306 349.5,34C 350.708,29.7605 352.042,25.5939 353.5,21.5 Z"/></g>
<g><path style="opacity:1" fill="#8fbf6f" d="M 442.5,35.5 C 442.5,35.1667 442.5,34.8333 442.5,34.5C 451.828,27.0392 452.828,18.5392 445.5,9C 446.167,8.33333 446.833,8.33333 447.5,9C 455.33,19.7109 453.663,28.5442 442.5,35.5 Z"/></g>
<g><path style="opacity:1" fill="#8cbd6b" d="M 157.5,19.5 C 158.167,20.5 158.833,21.5 159.5,22.5C 158.624,22.3691 157.957,22.7025 157.5,23.5C 156.265,27.039 154.932,30.539 153.5,34C 156.13,36.7912 158.13,39.9579 159.5,43.5C 159.672,44.4916 159.338,45.1583 158.5,45.5C 156.578,41.5769 154.245,37.9102 151.5,34.5C 153.134,29.2464 155.134,24.2464 157.5,19.5 Z"/></g>
<g><path style="opacity:1" fill="#bcd9a9" d="M 217.5,25.5 C 216.341,36.9927 216.174,48.6593 217,60.5C 218.421,62.4048 219.588,64.4048 220.5,66.5C 218.596,66.2624 217.262,65.2624 216.5,63.5C 215.629,60.8877 214.963,58.221 214.5,55.5C 215.33,45.0079 215.83,34.3412 216,23.5C 216.717,24.0442 217.217,24.7109 217.5,25.5 Z"/></g>
<g><path style="opacity:1" fill="#bcd9a9" d="M 277.5,25.5 C 276.341,36.9927 276.174,48.6593 277,60.5C 278.421,62.4048 279.588,64.4048 280.5,66.5C 278.596,66.2624 277.262,65.2624 276.5,63.5C 275.629,60.8877 274.963,58.221 274.5,55.5C 275.33,45.0079 275.83,34.3412 276,23.5C 276.717,24.0442 277.217,24.7109 277.5,25.5 Z"/></g>
<g><path style="opacity:1" fill="#8ebe6e" d="M 372.5,29.5 C 372.167,30.5 371.5,31.1667 370.5,31.5C 368.47,24.358 366.303,17.358 364,10.5C 371.745,3.78902 372.245,4.28902 365.5,12C 367.954,17.8763 370.287,23.7096 372.5,29.5 Z"/></g>
<g><path style="opacity:1" fill="#bdd9ab" d="M 396.5,35.5 C 398.833,36.1667 401.167,36.8333 403.5,37.5C 400.753,37.8134 398.086,37.48 395.5,36.5C 395.624,35.8933 395.957,35.56 396.5,35.5 Z"/></g>
<g><path style="opacity:1" fill="#fcfdfb" d="M 438.5,44.5 C 438.565,44.9382 438.399,45.2716 438,45.5C 437.292,44.6195 436.458,43.9528 435.5,43.5C 434.251,41.8639 432.584,40.6972 430.5,40C 425.511,39.5007 420.511,39.3341 415.5,39.5C 415.5,47.5 415.5,55.5 415.5,63.5C 413.529,54.8955 412.862,45.8955 413.5,36.5C 421.071,36.362 428.404,37.5287 435.5,40C 436.883,41.2708 437.883,42.7708 438.5,44.5 Z"/></g>
<g><path style="opacity:1" fill="#fefefe" d="M 90.5,41.5 C 88.7354,40.5386 86.7354,40.2053 84.5,40.5C 82.5349,47.7605 81.8682,55.4271 82.5,63.5C 81.8826,63.3893 81.3826,63.056 81,62.5C 80.5003,54.5069 80.3336,46.5069 80.5,38.5C 87.5079,38.3337 94.5079,38.5004 101.5,39C 98.0736,40.6534 94.4069,41.4867 90.5,41.5 Z"/></g>
<g><path style="opacity:1" fill="#71ad48" d="M 84.5,40.5 C 83.189,47.932 83.189,55.2653 84.5,62.5C 84.5,62.8333 84.5,63.1667 84.5,63.5C 83.8333,63.5 83.1667,63.5 82.5,63.5C 81.8682,55.4271 82.5349,47.7605 84.5,40.5 Z"/></g>
<g><path style="opacity:1" fill="#92c072" d="M 435.5,43.5 C 429.693,41.5743 423.693,40.5743 417.5,40.5C 417.5,48.1667 417.5,55.8333 417.5,63.5C 416.833,63.5 416.167,63.5 415.5,63.5C 415.5,55.5 415.5,47.5 415.5,39.5C 420.511,39.3341 425.511,39.5007 430.5,40C 432.584,40.6972 434.251,41.8639 435.5,43.5 Z"/></g>
<g><path style="opacity:1" fill="#fcfdfb" d="M 435.5,43.5 C 435.833,45.8333 437.167,47.1667 439.5,47.5C 440.298,55.417 436.965,60.5836 429.5,63C 425.514,63.4988 421.514,63.6655 417.5,63.5C 417.5,55.8333 417.5,48.1667 417.5,40.5C 423.693,40.5743 429.693,41.5743 435.5,43.5 Z"/></g>
<g><path style="opacity:1" fill="#a8cd8f" d="M 84.5,40.5 C 86.7354,40.2053 88.7354,40.5386 90.5,41.5C 89.209,41.2627 88.209,41.596 87.5,42.5C 86.5,42.5 85.5,42.5 84.5,42.5C 84.5,49.1667 84.5,55.8333 84.5,62.5C 83.189,55.2653 83.189,47.932 84.5,40.5 Z"/></g>
<g><path style="opacity:1" fill="#f6faf4" d="M 147.5,46.5 C 144.575,52.1601 143.908,58.1601 145.5,64.5C 144.21,63.9423 143.377,62.9423 143,61.5C 142.117,54.3699 143.45,47.7032 147,41.5C 148.628,42.9617 148.795,44.6283 147.5,46.5 Z"/></g>
<g><path style="opacity:1" fill="#f0f6ec" d="M 343.5,42.5 C 342.033,47.3744 341.033,52.3744 340.5,57.5C 340.637,59.8834 340.971,62.2168 341.5,64.5C 338.746,62.829 337.413,60.329 337.5,57C 338.724,52.4914 340.058,47.9914 341.5,43.5C 341.861,41.582 342.528,41.2486 343.5,42.5 Z"/></g>
<g><path style="opacity:1" fill="#8fbf6f" d="M 194.5,67.5 C 193.833,67.5 193.5,67.8333 193.5,68.5C 192.609,67.8902 191.609,67.5569 190.5,67.5C 189.084,65.8207 187.75,64.1541 186.5,62.5C 183.931,54.958 181.264,47.458 178.5,40C 181.553,39.8214 184.553,39.3214 187.5,38.5C 185.206,35.3107 184.206,31.9774 184.5,28.5C 186.358,32.0727 188.025,35.7393 189.5,39.5C 186.553,40.3214 183.553,40.8214 180.5,41C 183.329,48.1498 186.162,55.3165 189,62.5C 191.191,63.8334 193.024,65.5 194.5,67.5 Z"/></g>
<g><path style="opacity:1" fill="#b6d5a0" d="M 435.5,43.5 C 436.458,43.9528 437.292,44.6195 438,45.5C 438.399,45.2716 438.565,44.9382 438.5,44.5C 439.404,45.209 439.737,46.209 439.5,47.5C 437.167,47.1667 435.833,45.8333 435.5,43.5 Z"/></g>
<g><path style="opacity:1" fill="#8fbe6e" d="M 392.5,69.5 C 391.833,69.8333 391.167,70.1667 390.5,70.5C 389.738,68.7376 388.404,67.7376 386.5,67.5C 385.833,66.5 385.167,65.5 384.5,64.5C 380.351,56.5286 377.017,48.1953 374.5,39.5C 377.518,39.6646 380.518,39.498 383.5,39C 380.919,35.7802 379.919,32.2802 380.5,28.5C 381.89,32.2806 383.557,35.9472 385.5,39.5C 382.5,40.1667 379.5,40.8333 376.5,41.5C 379.098,48.1279 381.598,54.7946 384,61.5C 386.729,64.3993 389.562,67.066 392.5,69.5 Z"/></g>
<g><path style="opacity:1" fill="#92c073" d="M 28.5,9.5 C 32.5443,8.95788 36.211,9.79122 39.5,12C 30.4354,8.95169 24.6021,12.1184 22,21.5C 21.3333,29.8333 21.3333,38.1667 22,46.5C 22.5727,53.6077 25.7393,59.1077 31.5,63C 26.4848,61.9864 23.3182,58.8198 22,53.5C 19.9982,47.5193 19.1649,41.3526 19.5,35C 19.1649,28.6474 19.9982,22.4807 22,16.5C 23.6941,13.6424 25.8607,11.309 28.5,9.5 Z"/></g>
<g><path style="opacity:1" fill="#98c47a" d="M 343.5,42.5 C 344.5,43.5 345.5,44.5 346.5,45.5C 343.404,48.7862 342.071,52.7862 342.5,57.5C 342.285,62.2846 343.951,66.2846 347.5,69.5C 346.833,69.8333 346.167,70.1667 345.5,70.5C 345.144,68.8102 344.144,67.8102 342.5,67.5C 341.89,66.609 341.557,65.609 341.5,64.5C 340.971,62.2168 340.637,59.8834 340.5,57.5C 341.033,52.3744 342.033,47.3744 343.5,42.5 Z"/></g>
<g><path style="opacity:1" fill="#94c276" d="M 147.5,46.5 C 147.5,47.1667 147.833,47.5 148.5,47.5C 145.035,55.5509 146.035,62.8843 151.5,69.5C 151.167,69.5 150.833,69.5 150.5,69.5C 149.395,68.3995 148.062,67.7329 146.5,67.5C 145.89,66.609 145.557,65.609 145.5,64.5C 143.908,58.1601 144.575,52.1601 147.5,46.5 Z"/></g>
<g><path style="opacity:1" fill="#8bbc6a" d="M 449.5,42.5 C 449.369,41.6236 449.702,40.9569 450.5,40.5C 457.851,50.4851 456.851,59.6517 447.5,68C 445.043,69.5621 442.376,70.5621 439.5,71C 425.833,71.6667 412.167,71.6667 398.5,71C 410.167,70.6667 421.833,70.3333 433.5,70C 449.589,69.2507 455.756,61.0841 452,45.5C 451.623,44.0577 450.79,43.0577 449.5,42.5 Z"/></g>
<g><path style="opacity:1" fill="#72ae49" d="M 150.5,69.5 C 150.833,69.5 151.167,69.5 151.5,69.5C 152.043,69.56 152.376,69.8933 152.5,70.5C 143.853,71.6652 135.186,71.8319 126.5,71C 134.677,70.8292 142.677,70.3292 150.5,69.5 Z"/></g>
<g><path style="opacity:1" fill="#72ae4a" d="M 347.5,69.5 C 347.611,70.1174 347.944,70.6174 348.5,71C 339.5,71.6667 330.5,71.6667 321.5,71C 329.493,70.5003 337.493,70.3336 345.5,70.5C 346.167,70.1667 346.833,69.8333 347.5,69.5 Z"/></g>
<g><path style="opacity:1" fill="#71ae49" d="M 392.5,69.5 C 393.289,69.7828 393.956,70.2828 394.5,71C 385.167,71.6667 375.833,71.6667 366.5,71C 374.493,70.5003 382.493,70.3336 390.5,70.5C 391.167,70.1667 391.833,69.8333 392.5,69.5 Z"/></g>
<g><path style="opacity:1" fill="#aed096" d="M 25.5,71.5 C 23.8967,71.6882 22.5634,71.1882 21.5,70C 23.1398,69.6522 24.4732,70.1522 25.5,71.5 Z"/></g>
<g><path style="opacity:1" fill="#76b04f" d="M 193.5,68.5 C 193.5,67.8333 193.833,67.5 194.5,67.5C 195.627,68.1217 196.627,68.955 197.5,70C 205.833,70.6667 214.167,70.6667 222.5,70C 221.748,69.3292 221.414,68.4959 221.5,67.5C 223.564,67.7619 224.897,68.9286 225.5,71C 207.167,71.6667 188.833,71.6667 170.5,71C 178.833,70.6667 187.167,70.3333 195.5,70C 194.956,69.2828 194.289,68.7828 193.5,68.5 Z"/></g>
<g><path style="opacity:1" fill="#77b150" d="M 281.5,67.5 C 283.564,67.7619 284.897,68.9286 285.5,71C 276.833,71.6667 268.167,71.6667 259.5,71C 267.167,70.6667 274.833,70.3333 282.5,70C 281.748,69.3292 281.414,68.4959 281.5,67.5 Z"/></g>
<g><path style="opacity:1" fill="#b1d29b" d="M 25.5,71.5 C 27.7354,71.2053 29.7354,71.5386 31.5,72.5C 30.5084,72.3284 29.8417,72.6618 29.5,73.5C 27.847,73.3404 26.5137,72.6737 25.5,71.5 Z"/></g>
<g><path style="opacity:1" fill="#92c072" d="M 29.5,73.5 C 29.8417,72.6618 30.5084,72.3284 31.5,72.5C 47.427,71.9065 55.7603,63.5732 56.5,47.5C 57.439,66.2251 48.439,74.8917 29.5,73.5 Z"/></g>
</svg>
